<?xml version="1.0" encoding="UTF-8"?><svg id="Layer_1" xmlns="http://www.w3.org/2000/svg" viewBox="0 0 269.94 152.93"><defs><style>.cls-1{fill:#0084af;}.cls-1,.cls-2,.cls-3{stroke-width:0px;}.cls-2{fill:#d62028;}.cls-3{fill:#013e51;}</style></defs><path class="cls-2" d="M229.05,120.29h-86.26c-.82,0-1.48-.66-1.48-1.48v-7.71c0-.82.66-1.48,1.48-1.48h91.14c.92,0,1.49.99,1.04,1.78l-4.64,8.14c-.26.46-.75.74-1.28.74Z"/><path class="cls-2" d="M218.25,139.3h-75.46c-.82,0-1.48-.66-1.48-1.48v-7.71c0-.82.66-1.48,1.48-1.48h80.34c.92,0,1.49.99,1.04,1.78l-4.64,8.14c-.26.46-.75.74-1.28.74Z"/><path class="cls-3" d="M27.97,122.43l11.43-15.07c.24-.31.36-.58.36-.85,0-.18-.07-.78-1-.78h-9.37c-.35,0-.71.11-1.06.32-.34.21-.62.48-.82.78l-5.25,6.81c-1.49,1.93-3,3.88-4.54,5.86v-12.24c0-.46-.2-.85-.58-1.12-.34-.25-.68-.37-1.02-.37h-7.28c-.47,0-.84.15-1.11.46-.26.29-.39.64-.39,1.04v34.44c0,.95.55,1.5,1.52,1.5h7.25c1.01,0,1.59-.55,1.59-1.5v-9.46l2.68-3.08c.71,1.05,1.37,2.07,1.96,3.02l2.05,3.27c.68,1.08,1.37,2.16,2.09,3.25.72,1.1,1.53,2.25,2.38,3.4.21.33.49.6.81.79.33.2.68.31,1.04.31h9.32c.7,0,.95-.4.95-.78,0-.25-.11-.53-.34-.9l-12.68-19.09Z"/><path class="cls-3" d="M57.44,106.1c-.35-.25-.69-.37-1.03-.37h-7.25c-.49,0-.87.16-1.13.47-.24.29-.37.64-.37,1.03v34.47c0,.95.55,1.5,1.5,1.5h7.25c1.03,0,1.62-.55,1.62-1.5v-34.47c0-.46-.21-.85-.59-1.13Z"/><path class="cls-3" d="M97.51,114.93c-.83-1.39-1.84-2.66-3.02-3.79-1.17-1.12-2.48-2.09-3.89-2.9-1.41-.8-2.95-1.43-4.58-1.86-1.63-.43-3.35-.65-5.1-.65h-12.16c-.5,0-.89.15-1.16.46-.26.29-.39.66-.39,1.11v34.44c0,.59.19.99.55,1.2.29.17.63.25.99.25h12.16c1.75,0,3.47-.22,5.11-.64,1.64-.43,3.18-1.04,4.6-1.83s2.72-1.75,3.88-2.87c1.16-1.12,2.17-2.39,3.01-3.77.84-1.38,1.49-2.89,1.94-4.49.45-1.6.68-3.31.68-5.08s-.23-3.46-.69-5.07c-.46-1.6-1.11-3.12-1.94-4.51ZM89.83,124.49c0,1.24-.22,2.4-.65,3.44-.43,1.05-1.03,1.97-1.79,2.74-.76.78-1.66,1.41-2.68,1.89-1.02.48-2.13.77-3.31.86-.36.03-.72.06-1.08.09-.35.02-.71.04-1.08.04h-1.66v-18.14h2.84c1.29,0,2.52.23,3.66.67,1.14.45,2.14,1.08,2.99,1.89.84.81,1.52,1.77,2.02,2.88.49,1.1.74,2.33.74,3.64Z"/><path class="cls-3" d="M130.42,123.54c-1.09-.88-2.41-1.66-3.91-2.3-1.48-.64-3.11-1.25-4.85-1.83-.9-.29-1.69-.57-2.36-.82-.66-.24-1.21-.51-1.64-.78-.41-.25-.72-.53-.91-.82-.18-.27-.27-.58-.27-.96s.08-.69.25-.94c.18-.26.42-.48.72-.64.32-.18.7-.31,1.14-.39.88-.17,1.92-.21,2.88.09.48.15.95.34,1.39.56.44.23.86.49,1.24.77.39.29.75.57,1.07.84l.23.2c.24.21.46.38.66.52.58.4,1.34.39,2-.28l3.77-4.02c.23-.25.41-.48.53-.69.14-.25.22-.51.22-.8,0-.31-.14-.64-.42-1.01-.24-.32-.56-.65-.96-1-.39-.34-.85-.69-1.35-1.05-.51-.36-1.06-.71-1.63-1.05-1.36-.75-2.76-1.31-4.16-1.66-1.4-.34-2.88-.52-4.4-.52-2.02,0-3.88.25-5.52.74-1.65.5-3.09,1.21-4.26,2.13-1.19.92-2.11,2.05-2.76,3.35s-.97,2.76-.97,4.35c0,1.49.26,2.87.77,4.09.51,1.22,1.29,2.35,2.31,3.36,1.01,1,2.29,1.92,3.79,2.73,1.49.8,3.25,1.56,5.24,2.26.44.15.96.33,1.57.55.59.21,1.16.47,1.69.77.52.29.96.63,1.32,1,.31.33.46.68.46,1.08s-.06.81-.19,1.17c-.12.35-.32.65-.6.92-.28.27-.68.49-1.19.66-1.08.36-2.93.39-4.42-.18-.79-.3-1.6-.73-2.41-1.26-.54-.37-1.03-.74-1.45-1.11-.44-.39-.8-.7-1.08-.93-.25-.21-.47-.37-.64-.48-.54-.33-1-.31-1.8.28l-4.26,4.06c-.47.43-.7.84-.7,1.24,0,.36.21.77.69,1.28.02.02.03.03.05.04l.05.06s.03.03.05.04l.12.12c.26.28.62.65,1.08,1.12.47.48,1.04.97,1.72,1.46,1.6,1.16,3.35,2.09,5.2,2.77,1.86.69,3.79,1.04,5.72,1.04,2.04,0,3.97-.29,5.75-.87,1.78-.58,3.35-1.41,4.68-2.47,1.33-1.07,2.39-2.38,3.16-3.9.77-1.52,1.15-3.24,1.15-5.1,0-1.77-.32-3.3-.94-4.55-.62-1.25-1.5-2.34-2.61-3.23Z"/><path class="cls-1" d="M56.49,44.47c1.48,1.25,3.22,2.17,5.18,2.72,1.93.54,3.97.82,6.08.82s4.14-.27,6.06-.79c1.95-.54,3.69-1.43,5.17-2.67,1.49-1.24,2.69-2.9,3.56-4.92.87-2.01,1.31-4.52,1.31-7.45V11.47c0-.42-.17-.82-.48-1.15-.33-.34-.76-.51-1.3-.51h-7.17c-.5,0-.93.17-1.24.5-.31.32-.47.72-.47,1.16v20.85c0,1.01-.15,1.9-.44,2.67-.29.76-.69,1.4-1.18,1.91-.49.5-1.07.89-1.72,1.14-1.3.51-2.85.51-4.21.05-.65-.22-1.22-.56-1.7-1.03-.49-.47-.89-1.1-1.19-1.86-.31-.77-.46-1.74-.46-2.87V11.47c0-.49-.22-.92-.63-1.23-.37-.28-.75-.43-1.12-.43h-7.35c-.45,0-.84.19-1.14.54-.28.33-.42.7-.42,1.13v20.71c0,2.89.44,5.37,1.31,7.37.87,2.01,2.07,3.67,3.56,4.93Z"/><path class="cls-1" d="M111.81,46.17c.11.38.32.69.63.92.32.24.69.36,1.09.36h8.43c.43,0,.79-.11,1.06-.34.22-.17.47-.5.47-1.05,0-.34-.11-.7-.35-1.1-.17-.3-.32-.56-.43-.79l-6.05-11.4c.74-.47,1.44-1.01,2.08-1.62.78-.75,1.46-1.59,2.02-2.5.56-.91,1.01-1.91,1.33-2.96.32-1.06.48-2.18.48-3.35,0-1.71-.33-3.35-.99-4.86-.66-1.51-1.57-2.85-2.72-3.98-1.14-1.13-2.5-2.03-4.04-2.69-1.54-.66-3.21-.99-4.97-.99h-15.87c-.66,0-1.04.27-1.25.5-.28.31-.41.72-.41,1.21v34.29c0,.53.17.95.49,1.24.31.27.7.4,1.17.4h7.3c1.07,0,1.71-.61,1.71-1.64v-10.5h3.05l5.77,10.86ZM106.92,26.34h-3.94v-7.85h2.81c.46,0,.89.01,1.28.04l1.24.08c.48.07.92.23,1.31.46.4.24.74.54,1.03.9.29.36.51.76.67,1.19.16.43.24.85.24,1.27,0,.46-.07.91-.22,1.35-.14.43-.35.83-.62,1.18-.26.34-.6.63-.99.86-.39.23-.83.37-1.32.43-.27.03-.51.06-.74.07-.22.02-.46.02-.74.02Z"/><path class="cls-1" d="M43.75,23.5c-.46-1.64-1.12-3.2-1.95-4.63-.83-1.44-1.85-2.76-3.03-3.94-1.18-1.18-2.5-2.2-3.93-3.03-1.43-.83-2.99-1.49-4.63-1.95-3.31-.93-7.04-.92-10.31,0-1.64.46-3.19,1.12-4.62,1.95-1.43.83-2.74,1.85-3.92,3.03-1.17,1.17-2.19,2.5-3.03,3.94-.84,1.43-1.5,2.99-1.95,4.63-.45,1.64-.68,3.38-.68,5.15s.23,3.51.68,5.15c.45,1.64,1.11,3.19,1.95,4.61.84,1.42,1.86,2.73,3.03,3.9,1.17,1.17,2.49,2.19,3.91,3.02,1.43.84,2.98,1.5,4.62,1.95,1.64.45,3.37.68,5.16.68s3.5-.23,5.14-.68c1.65-.45,3.21-1.11,4.64-1.95,1.43-.84,2.75-1.86,3.92-3.02,1.18-1.17,2.19-2.48,3.03-3.9.83-1.42,1.49-2.97,1.95-4.61.46-1.64.7-3.37.7-5.16s-.23-3.52-.7-5.16ZM36.02,25.63l-5.93,4.49c-.15.11-.21.3-.15.47l2.15,7.12c.12.4-.33.72-.67.48l-6.1-4.25c-.15-.1-.35-.1-.5,0l-6.1,4.25c-.34.24-.79-.09-.67-.48l2.15-7.12c.05-.17,0-.36-.15-.47l-5.93-4.49c-.33-.25-.16-.77.25-.78l7.44-.15c.18,0,.34-.12.4-.29l2.44-7.03c.14-.39.69-.39.82,0l2.44,7.03c.06.17.22.29.4.29l7.44.15c.41,0,.58.53.25.78Z"/><path class="cls-3" d="M45.63,58.22c-.26-.31-.64-.47-1.13-.47h-6.99c-.87,0-1.87-.06-2.53.61-.33.33-.48.86-.67,1.28-.47,1.04-7.52,17.62-7.64,17.88-.11-.26-7.17-16.83-7.64-17.88-.19-.42-.35-.95-.67-1.28-.66-.67-1.66-.61-2.53-.61h-6.99c-.49,0-.87.16-1.13.47-.24.29-.37.64-.37,1.03v34.69c0,.4.12.74.36,1.02.25.3.64.46,1.14.46h7c.56,0,.95-.13,1.19-.41.23-.26.35-.63.35-1.09v-17.73c.42,1.41.9,2.8,1.38,4.19.74,2.13,1.49,4.25,2.29,6.36.25.65.47,1.33.77,1.96.4.82,1.01.84,2.63.82.15,0,2.21,0,2.21,0,0,0,2.06,0,2.21,0,1.62.02,2.24,0,2.63-.82.3-.63.53-1.31.77-1.96.8-2.11,1.55-4.23,2.29-6.36.48-1.39.96-2.78,1.38-4.19v17.73c0,.47.12.83.35,1.09.25.27.64.41,1.19.41h7c.5,0,.89-.15,1.14-.46.24-.28.36-.62.36-1.02v-34.69c0-.4-.12-.74-.37-1.03Z"/><path class="cls-3" d="M65.01,93.76v-34.32c0-.52-.23-.96-.66-1.26-.38-.27-.75-.4-1.12-.4h-7.22c-.67,0-1.05.28-1.25.52-.27.32-.41.7-.41,1.14v34.32c0,1.04.62,1.66,1.66,1.66h7.22c1.12,0,1.78-.62,1.78-1.66Z"/><path class="cls-3" d="M96.95,85.56h-12.93v-26.17c-.03-.49-.22-.9-.57-1.2-.34-.29-.72-.43-1.14-.43h-7.27c-.5,0-.93.17-1.24.51-.29.32-.45.72-.45,1.16v34.34c0,1.04.62,1.66,1.66,1.66h21.96c.51-.02.93-.23,1.22-.58.28-.33.42-.71.42-1.13v-6.46c0-.64-.28-1.02-.51-1.24-.32-.29-.72-.45-1.15-.45Z"/><path class="cls-3" d="M107.39,57.78c-.67,0-1.05.28-1.25.52-.27.32-.41.7-.41,1.14v34.32c0,1.04.62,1.66,1.66,1.66h7.22c1.12,0,1.78-.62,1.78-1.66v-34.32c0-.52-.23-.96-.66-1.26-.38-.27-.75-.4-1.12-.4h-7.22Z"/><path class="cls-3" d="M153.54,65.54v-6.15c-.06-.65-.37-1.02-.62-1.21-.33-.26-.72-.39-1.14-.39h-26.43c-.47,0-.88.15-1.21.44-.35.3-.53.73-.53,1.22v6.1c0,.57.17,1.03.51,1.35.33.31.75.48,1.22.48h7.87v26.32c0,.49.19.92.56,1.25.35.32.75.48,1.17.48h7.2c.51,0,.94-.19,1.27-.55.31-.35.46-.74.46-1.18v-26.32h7.9c.56,0,1.02-.22,1.33-.63.28-.37.42-.77.42-1.2Z"/><path class="cls-3" d="M226.47,92.13l-6.05-11.4c.74-.47,1.44-1.01,2.08-1.62.78-.75,1.46-1.59,2.02-2.5.56-.91,1.01-1.91,1.33-2.96.32-1.06.48-2.18.48-3.35,0-1.71-.33-3.35-.99-4.86-.66-1.51-1.57-2.85-2.72-3.98-1.14-1.13-2.5-2.03-4.04-2.69-1.54-.66-3.21-.99-4.97-.99h-15.87c-.66,0-1.04.27-1.25.5-.28.31-.41.72-.41,1.21v34.29c0,.53.17.95.49,1.24.31.27.7.4,1.17.4h7.3c1.07,0,1.71-.61,1.71-1.64v-10.5h3.05l5.77,10.86c.11.38.32.69.63.92.32.24.69.36,1.09.36h8.43c.43,0,.79-.11,1.06-.34.22-.17.47-.5.47-1.05,0-.34-.11-.7-.35-1.1-.17-.3-.32-.56-.43-.79ZM215.31,70.4c0,.46-.07.91-.22,1.35-.14.43-.35.83-.62,1.18-.26.34-.6.63-.99.86-.39.23-.83.37-1.32.43-.27.03-.51.06-.74.07-.22.02-.46.02-.74.02h-3.94v-7.85h2.81c.46,0,.89.01,1.28.04l1.24.08c.48.07.92.23,1.31.46.4.24.74.54,1.03.9.29.36.51.76.67,1.19.16.43.24.85.24,1.27Z"/><path class="cls-3" d="M189.75,93.64c-.08-.22-.17-.44-.25-.65-.34-.89-.69-1.78-1.03-2.68-.54-1.41-1.09-2.82-1.63-4.23-.67-1.74-1.35-3.48-2.02-5.22-.73-1.89-1.46-3.78-2.19-5.66-.71-1.85-1.43-3.7-2.14-5.55-.63-1.62-1.25-3.25-1.88-4.87-.47-1.21-.94-2.43-1.41-3.64-.3-.77-.5-1.6-.95-2.3-.53-.81-1.24-1.05-2.18-1.05h-5.28c-.94,0-1.65.24-2.18,1.05-.45.7-.65,1.53-.95,2.3-.47,1.21-.94,2.43-1.41,3.64-.63,1.62-1.25,3.25-1.88,4.87-.71,1.85-1.43,3.7-2.14,5.55-.73,1.89-1.46,3.78-2.19,5.66-.67,1.74-1.35,3.48-2.02,5.22-.54,1.41-1.09,2.82-1.63,4.23-.34.89-.69,1.78-1.03,2.68-.08.22-.17.44-.25.65-.32.81.09,1.25.28,1.41.31.25.69.37,1.14.37h7.25c.87,0,1.51-.46,1.8-1.29.31-.83.62-1.66.94-2.48.27-.7.54-1.41.81-2.12h12.21c.27.71.53,1.42.81,2.12.32.82.63,1.65.94,2.48.29.83.93,1.29,1.8,1.29h7.25c.45,0,.83-.13,1.14-.37.19-.15.61-.6.28-1.41ZM168.5,80.48c.22-.61,2.81-8.5,2.93-8.86.12.36,2.71,8.25,2.93,8.86h-5.86Z"/><path class="cls-3" d="M263.99,58.06c-.18-.18-.42-.28-.69-.28h-8.87c-.63,0-1.31.02-1.72.57-.08.11-.18.28-.3.52l-5.4,11.57-5.4-11.57c-.12-.25-.22-.42-.3-.52-.41-.55-1.09-.57-1.72-.57h-8.87c-.27,0-.51.1-.69.28-.55.57-.06,1.14.24,1.69.68,1.26,11.14,19.78,11.47,20.35v13.58c0,1.09.64,1.73,1.71,1.73h7.15c1.07,0,1.71-.65,1.71-1.73v-13.58c.32-.57,10.79-19.09,11.47-20.35.3-.55.79-1.13.24-1.69Z"/></svg>