<svg height="181" viewBox="0 0 863 181" width="863" xmlns="http://www.w3.org/2000/svg" xmlns:xlink="http://www.w3.org/1999/xlink"><defs><linearGradient id="a" x1="31.04681%" x2="66.250438%" y1="-3.065661%" y2="108.363557%"><stop offset="0" stop-color="#4fb3c0"/><stop offset="1" stop-color="#6f81b4"/></linearGradient><linearGradient id="b" x1="23.840758%" x2="54.276107%" y1="-3.798683%" y2="100%"><stop offset="0" stop-color="#3a8892"/><stop offset="1" stop-color="#8b6fb4"/></linearGradient><linearGradient id="c" x1="23.840758%" x2="69.57123%" y1="0%" y2="124.489374%"><stop offset="0" stop-color="#4cb2bf"/><stop offset="1" stop-color="#6f81b4"/></linearGradient><path id="d" d="m58.7788105 12.7565843c27.9499845 12.2543654 29.0939127 55.5527903 2.5550351 96.7097387-2.547944 3.951395-5.2584213 7.739393-8.1014717 11.348103.8630732-14.128682-4.9651572-31.3611049-10.0637885-41.9922616-6.8757972-14.3367254-21.9109188-34.1163879-43.1685854-54.6277444 20.6312158-13.58752 42.4674422-18.58937692 58.7788105-11.4378357z"/></defs><g fill="none" fill-rule="evenodd" transform="translate(1 1)"><g transform="matrix(.99756405 .06975647 -.06975647 .99756405 11.5395 .000041)"><path d="m167.789578 3.46010304c24.597718 13.03240266 25.604447 59.07977356 2.248733 102.84979296-19.546401 36.630503-49.961379 60.05729-73.7811767 59.086249-11.3106058.137352-22.8187436-5.490463-37.549727-15.268105 4.0150361.440073 8.1053783.277662 12.2567324-.389632l.7790904-.13101.4198899-.075461.8387725-.160322.8403621-.173535.886639-.196779.5478108-.12859c.5366749-.128492 1.0742717-.26471 1.6127602-.408451l.8083979-.221227.5851603-.166841.8694248-.258145c.5389252-.16376 1.0786937-.334701 1.6192758-.512622l.9428299-.317075.8354516-.292094.7638227-.276027.3620758-.133785c.7247166-.26968 1.4507855-.55113 2.1781358-.84387l1.3734399-.565449.488508-.207124.8108929-.350646 1.1075745-.492427 1.2745093-.585395 1.149789-.544844 1.291227-.630185.9999024-.500941.404777-.205922c.7412708-.378744 1.483549-.766949 2.2267625-1.164124l1.6916409-.918424c.6273321-.345849 1.2552894-.697803 1.8838284-1.055569l.453331-.316069.755913-.538139.811912-.59369.991347-.747323.926697-.721321.461858-.367845.919096-.748805.857277-.718925.604092-.518688.558011-.488137.638432-.569253.204051-.184389c.412828-.374257.823679-.754064 1.232555-1.139423l.851114-.81294.76466-.748989.625789-.626318c.453098-.457878.904014-.923173 1.352411-1.395545l.430342-.45635.428999-.460938c.534662-.578235 1.065688-1.166677 1.59308-1.765326l.421642-.481676.420364-.486364c.340342-.396282.679147-.796878 1.016417-1.201788l.831617-1.010976.267093-.330088.600308-.751605.679227-.866861.255856-.331127c.343858-.446723.68604-.898154 1.026546-1.354293.702994-.941728 1.398779-1.903431 2.08742-2.885196l.701679-1.010896c.484063-.704705.964545-1.419464 1.441447-2.144277.328769-.499676.655836-1.004129.981201-1.513362l.486773-.767432.312402-.498458c.633303-1.015215 1.260047-2.048849 1.880232-3.100902l.379551-.647557.713998-1.238496c.868468-1.522781 1.723928-3.082947 2.566192-4.6801693l.383321-.7312143.381565-.736501c1.487709-2.8885501 2.933454-5.8949457 4.337236-9.019187l8.25676 3.6222702c2.781657 1.2203232 6.025904-.0453885 7.246227-2.8270462.586655-1.337247.617437-2.8529005.08556-4.212864l-11.752938-30.0512403c-1.206957-3.0860846-4.687155-4.6094185-7.773239-3.4024613-.316535.1237957-.621979.2742636-.913035.44978l-28.554935 17.2195563c-2.300141 1.38706-3.083436 4.3312366-1.813824 6.667394l.113864.1987025c.663109 1.0991505 1.723516 1.9013382 2.961762 2.2405447l9.120512 2.4984825c-4.688366 11.7835663-11.466232 21.3582062-20.3335976 28.7239202-.2510442.208531-.5069354.414834-.767339.61867l-.5385949.413243-.3911652.29006-.3493779.252271-.5216523.365252-.7506623.502854-.530218.339841-.5573907.3442-.6414952.380197-.3060311.175545c-.3869475.219614-.7782623.43288-1.1733104.639334l-.8012491.406824-.4809764.232909c-.2715037.129109-.5446264.254987-.8188983.377357-.239086.106677-.479591.210918-.7208255.312376l-.3906779.16161-.598756.237218-.3541126.134328c-.2741276.102269-.5488336.200761-.8239068.295326l-.2910441.09854-.4673712.151877-.5214806.160124-.4708438.136029-.6073829.16332-.4258061.106205-.5813101.133746-.4637452.097209-.5182297.098432-.2020497.035408-.2849787.04706-.5741668.084379-.4356331.054481-.5343046.055222-.4633548.037214-.5073271.028961-.4925718.015892-.1951068.002856-.6082386-.00408-.3708583-.012481-.4574698-.026305-.4825824-.041388-.2585927-.028186-.4887473-.065253-.3693234-.060163-.5137411-.10012-.3981025-.09148-.4623006-.122445-.4247096-.128833-.2020282-.067089-.3952454-.142693-.2609392-.102913-.3246052-.138261-.2611484-.119914-.2278459-.111288-.359685-.189066-.3934867-.226964-.1742056-.107679-.2263299-.146921-.3759043-.262721-.151497-.112929-.1818556-.141263-.1404932-.11359-.2214673-.187379-.1213335-.107196-.2013349-.185383-.1342256-.12907-.1997415-.200695-.2882346-.309245c-.1294321-.144433-.2556958-.29302-.3789124-.446071l-.2207946-.283391c-.1187538-.157503-.234559-.319584-.3473152-.486304l-.2388899-.367535c-2.7808215-4.454656-3.5044527-11.9932-.5694601-23.7622795 5.6638027-16.3081429 15.3065547-29.4554705 25.3841471-43.1747267 2.1351106-3.1839969 4.3508857-6.229711 6.6308183-9.1283495l.0540347-.0549181.0044402-.019375c22.7988205-28.94668372 51.9935015-43.1919657 71.8680685-32.66204816z" fill="url(#a)"/><g transform="matrix(-1 0 0 1 80.5132 0)"><use fill="#000" xlink:href="#d"/><use fill="url(#b)" xlink:href="#d"/><use fill="url(#c)" xlink:href="#d"/></g></g><g fill="#000" fill-rule="nonzero" transform="translate(220 38.47)"><path d="m95.092253 3.79247784v65.71197176c0 13.3222939-4.3787684 23.7637634-13.1363051 31.3244084-8.7575368 7.560645-20.2396405 11.340967-34.4463112 11.340967-14.2066706 0-25.6766111-3.780322-34.4098213-11.340967-8.73321028-7.560645-13.0998154-18.0021145-13.0998154-31.3244084v-65.71197176c0-1.02105173.37706061-1.9083943 1.13118183-2.66202772.75412122-.75363341 1.66636462-1.13045012 2.73673022-1.13045012h20.43425235c1.0703656 0 1.982609.37681671 2.7367302 1.13045012.7541213.75363342 1.1311819 1.64097599 1.1311819 2.66202772v63.37813926c0 5.8345813 1.7393441 10.4779355 5.2180323 13.9300628s8.1858642 5.1781909 14.1215279 5.1781909c5.9356638 0 10.6306766-1.7139083 14.0850383-5.1417248s5.1815425-8.0833261 5.1815425-13.9665289v-63.37813926c0-1.02105173.3892239-1.9083943 1.1676716-2.66202772.7784477-.75363341 1.7028544-1.13045012 2.77322-1.13045012h20.4342523c1.0703656 0 1.9947723.37681671 2.77322 1.13045012.7784477.75363342 1.1676716 1.64097599 1.1676716 2.66202772z"/><path d="m132.530722 71.1089594c0 4.4245575 1.520406 8.1927246 4.561218 11.3045013 3.040811 3.1117767 6.750601 4.667665 11.129369 4.667665s8.088558-1.5558883 11.12937-4.667665c3.040811-3.1117767 4.561217-6.8799438 4.561217-11.3045013 0-4.4245574-1.520406-8.1927245-4.561217-11.3045012-3.040812-3.1117767-6.750602-4.667665-11.12937-4.667665s-8.088558 1.5558883-11.129369 4.667665c-3.040812 3.1117767-4.561218 6.8799438-4.561218 11.3045012zm-26.783466 66.1495656v-101.3758501c0-1.0696732.340571-1.9448604 1.021713-2.6255616.681141-.6807011 1.556895-1.0210517 2.627261-1.0210517h19.850416c1.070366 0 1.946119.3403506 2.627261 1.0210517.681142.6807012 1.021713 1.5558884 1.021713 2.6255616v1.3857131c2.529955-2.382454 5.388318-4.1814499 8.575088-5.3969877s6.653295-1.8233067 10.399575-1.8233067c11.09288 0 20.422089 3.9626532 27.987628 11.8879594 7.565538 7.9253063 11.348308 17.6496084 11.348308 29.1729064 0 11.5232981-3.78277 21.2476002-11.348308 29.1729066-7.565539 7.925306-16.894748 11.887959-27.987628 11.887959-3.74628 0-7.212805-.607769-10.399575-1.823306-3.18677-1.215538-6.045133-3.038845-8.575088-5.46992v32.381926c0 1.069673-.340571 1.94486-1.021713 2.625561-.681142.680702-1.556895 1.021052-2.627261 1.021052h-19.850416c-1.070366 0-1.94612-.34035-2.627261-1.021052-.681142-.680701-1.021713-1.555888-1.021713-2.625561z"/><path d="m212.728227 32.2321172c1.606817 0 2.909312.3285286 3.907487.9849417.998174.656413 1.716372 1.6410326 2.154595 2.9538587l13.657943 40.0411957 12.270238-40.1141305c.389532-1.2155797 1.071211-2.1637319 2.04504-2.8444566.860271-.6013456 1.891531-.9373311 3.093781-1.0075124l.000711-.0102469.322622-.0006497.161705-.003h15.243054l.160241.003.112378.0006497-.000378.0013503.049727.0010473c1.272315.0483777 2.357932.3870006 3.256851 1.0153617.973828.6807247 1.655508 1.6288769 2.045039 2.8444566l12.270238 40.1141305 13.657944-40.0411957c.438223-1.3128261 1.156421-2.2974457 2.154595-2.9538587.998174-.6564131 2.30067-.9849417 3.907486-.9849417h17.748023c1.752891 0 2.994522.608112 3.724893 1.8236917.730372 1.2155796.754717 2.6499637.073038 4.3031522l-26.22033 67.8293469c-.584297 1.264204-1.290322 2.2002-2.118077 2.80799-.827754.60779-1.777237.911685-2.848447.911685h-19.939137c-1.217286 0-2.312843-.340363-3.286671-1.021087-.973828-.680725-1.679854-1.580254-2.118076-2.698588l-10.250865-27.6369856-10.250863 27.6369856c-.438223 1.118334-1.144248 2.017863-2.118076 2.698588-.973829.680724-2.069386 1.021087-3.286672 1.021087h-19.939136c-1.071211 0-2.020694-.303895-2.848448-.911685s-1.533779-1.543786-2.118077-2.80799l-26.220329-67.8293469c-.68168-1.6531885-.657334-3.0875726.073037-4.3031522.730372-1.2155797 1.972003-1.8236917 3.724894-1.8236917z"/><path d="m384.163944 106.189379v-1.31278c-2.529955 2.431075-5.388317 4.254382-8.575088 5.46992-3.18677 1.215537-6.653295 1.823306-10.399574 1.823306-11.09288 0-20.42209-3.962653-27.987628-11.887959-7.565539-7.9253064-11.348308-17.6496085-11.348308-29.1729066 0-11.523298 3.782769-21.2476001 11.348308-29.1729064 7.565538-7.9253062 16.894748-11.8879594 27.987628-11.8879594 3.746279 0 7.212804.6077689 10.399574 1.8233067 3.186771 1.2155378 6.045133 3.0145337 8.575088 5.3969877v-1.3857131c0-1.0696732.340571-1.9448604 1.021713-2.6255616.681142-.6807011 1.556895-1.0210517 2.627261-1.0210517h19.850417c1.070365 0 1.946119.3403506 2.627261 1.0210517.681141.6807012 1.021712 1.5558884 1.021712 2.6255616v70.3067041c0 1.021052-.352734 1.896239-1.058202 2.625562s-1.544732 1.093984-2.517792 1.093984h-19.777437c-1.021713 0-1.90963-.364661-2.663751-1.093984s-1.131182-1.60451-1.131182-2.625562zm-31.016275-35.0804196c0 4.4245575 1.520405 8.1927246 4.561217 11.3045013 3.040811 3.1117767 6.750601 4.667665 11.129369 4.667665 4.378769 0 8.088558-1.5558883 11.12937-4.667665 3.040811-3.1117767 4.561217-6.8799438 4.561217-11.3045013 0-4.4245574-1.520406-8.1927245-4.561217-11.3045012-3.040812-3.1117767-6.750601-4.667665-11.12937-4.667665-4.378768 0-8.088558 1.5558883-11.129369 4.667665-3.040812 3.1117767-4.561217 6.8799438-4.561217 11.3045012z"/><path d="m425.105429 32.2360616h14.158017c1.556896 0 2.882689.3646613 3.977382 1.093984 1.094692.7293227 1.982609 1.8233067 2.66375 3.281952l2.189385 4.8864618c2.870525-3.4035057 5.826194-6.0047566 8.867005-7.8037525 3.040812-1.7989959 6.020807-2.6984938 8.939986-2.6984938 3.162444 0 5.558603.6928565 7.188478 2.0785696 1.629875 1.385713 2.274527 3.3670396 1.933956 5.9439797l-2.189384 17.7225406c-.291918 2.0421035-.948733 3.5736811-1.970446 4.5947328s-2.408323 1.5315776-4.15983 1.5315776c-.583836 0-1.191998-.0607769-1.824487-.1823307s-1.581222-.3525059-2.846199-.6928565c-1.410937-.4375936-2.469139-.7171673-3.174607-.8387211s-1.398773-.1823306-2.079915-.1823306c-2.481302 0-4.476075.7293226-5.984317 2.1879679-1.508242 1.4586454-2.262364 3.4521273-2.262364 5.9804459v37.4871847c0 .875187-.37706 1.640976-1.131181 2.297366-.754122.656391-1.617712.984586-2.590772.984586h-19.777437c-1.070365 0-1.946119-.340351-2.627261-1.021052s-1.021712-1.531577-1.021712-2.552629v-70.4525691c0-1.0210517.352734-1.8840835 1.058202-2.5890954s1.593385-1.0575179 2.663751-1.0575179z"/><path d="m503.339423 71.1089594c0 4.4245575 1.520406 8.1927246 4.561217 11.3045013 3.040812 3.1117767 6.750602 4.667665 11.12937 4.667665s8.088558-1.5558883 11.12937-4.667665c3.040811-3.1117767 4.561217-6.8799438 4.561217-11.3045013 0-4.4245574-1.520406-8.1927245-4.561217-11.3045012-3.040812-3.1117767-6.750602-4.667665-11.12937-4.667665s-8.088558 1.5558883-11.12937 4.667665c-3.040811 3.1117767-4.561217 6.8799438-4.561217 11.3045012zm58.16464-67.38941383v102.54276643c0 1.069673-.340571 1.94486-1.021712 2.625561-.681142.680701-1.556896 1.021052-2.627262 1.021052h-19.850416c-1.070366 0-1.946119-.340351-2.627261-1.021052s-1.021713-1.555888-1.021713-2.625561v-1.385713c-2.529955 2.431075-5.388317 4.254382-8.575088 5.46992-3.18677 1.215537-6.653295 1.823306-10.399575 1.823306-11.092879 0-20.422089-3.962653-27.987627-11.887959-7.565539-7.9253064-11.348308-17.6496085-11.348308-29.1729066 0-11.523298 3.782769-21.2476001 11.348308-29.1729064 7.565538-7.9253062 16.894748-11.8879594 27.987627-11.8879594 3.74628 0 7.212805.6077689 10.399575 1.8233067 3.186771 1.2155378 6.045133 3.0145337 8.575088 5.3969877v-33.54884243c0-1.06967323.340571-1.94486043 1.021713-2.62556158.681142-.68070115 1.556895-1.02105172 2.627261-1.02105172h19.850416c1.070366 0 1.94612.34035057 2.627262 1.02105172.681141.68070115 1.021712 1.55588835 1.021712 2.62556158z"/><path d="m571.283312 56.3766417c0-7.5363342 3.150281-13.8085091 9.450842-18.8165247s14.413446-7.5120234 24.338654-7.5120234c6.714112 0 13.063326.9238087 19.047643 2.7714261 5.984316 1.8476175 10.509044 4.1571392 13.574182 6.9285653 1.410936 1.1669163 2.152894 2.4067648 2.225874 3.7195456.072979 1.3127808-.547346 2.7228046-1.860977 4.2300714l-7.224968 7.8037525c-1.167671 1.2641593-2.420486 1.9327051-3.758443 2.0056373-1.337957.0729323-2.931342-.4011274-4.780155-1.4221792-3.162444-1.7503744-6.118113-3.0631551-8.867006-3.9383423-2.748894-.8751872-5.315338-1.3127808-7.699334-1.3127808-1.994773 0-3.648974.3403505-4.962605 1.0210517-1.31363.6807011-1.970445 1.5558883-1.970445 2.6255616 0 .9238087.389224 1.7017529 1.167671 2.3338325.778448.6320796 1.994773 1.1182947 3.648974 1.4586453l14.814833 3.2090197c7.492559 1.6045099 13.197121 4.4245575 17.113686 8.4601429s5.874848 9.1651548 5.874848 15.3887081c0 8.1684138-3.25975 14.6836967-9.77925 19.5458477-6.519499 4.862151-15.325689 7.293226-26.418569 7.293226-5.205869 0-10.350922-.680701-15.435158-2.042103-5.084237-1.361402-9.523821-3.233331-13.318754-5.615785-3.940891-2.479697-6.324888-4.9472384-7.151988-7.4026247-.827101-2.4553863-.048653-4.6555096 2.335343-6.6003701l8.027742-6.5639039c1.410936-1.1669163 2.748893-1.7503744 4.013871-1.7503744 1.264977 0 2.846199.7293227 4.743666 2.187968 2.967831 2.2365895 5.99648 3.9626531 9.085944 5.1781909 3.089464 1.2155377 6.093786 1.8233066 9.012965 1.8233066 2.238037 0 4.013871-.3768167 5.327501-1.1304501 1.313631-.7536334 1.970446-1.7139083 1.970446-2.8808245 0-1.1669163-.547346-2.1393465-1.642038-2.9172907-1.094692-.7779441-2.761057-1.385713-4.999094-1.8233066l-14.522915-2.9902229c-6.762764-1.3614023-12.017287-4.0720515-15.763566-8.1319477-3.74628-4.0598961-5.61942-9.1043779-5.61942-15.1334452z"/></g></g></svg>